<svg xmlns="http://www.w3.org/2000/svg" fill="none" viewBox="0 0 47 49"><path stroke="#d5647c" stroke-linecap="round" stroke-linejoin="round" stroke-miterlimit="10" d="M33.625 9.265a2.53 2.53 0 0 1-2.531-2.531V3.359A2.53 2.53 0 0 1 33.625.828a2.53 2.53 0 0 1 2.531 2.53V5.89M10 9.265a2.53 2.53 0 0 1-2.531-2.531V3.359A2.53 2.53 0 0 1 10 .828a2.53 2.53 0 0 1 2.531 2.53V5.89m33.75 40.5V7.578c0-.932-.756-1.688-1.687-1.688H37m-26.156 0h20.25"/><path stroke="#d5647c" stroke-linecap="round" stroke-linejoin="round" stroke-miterlimit="10" d="M.719 13.484V46.39c0 .931.756 1.688 1.687 1.688H41.22c.931 0 1.687-.757 1.687-1.688V7.578c0-.932-.756-1.688-1.687-1.688h-6.75"/><path stroke="#d5647c" stroke-linecap="round" stroke-linejoin="round" stroke-miterlimit="10" d="M7.469 5.89H2.406C1.475 5.89.72 6.646.72 7.578v6.75h38.81m-28.644 11.66a3.8 3.8 0 0 1 3.755-3.223h.843a3.796 3.796 0 1 1 0 7.594m0 0h-.421m.421 0c2.098 0 3.797 1.7 3.797 3.797v1.687c0 2.098-1.7 3.797-3.797 3.797h-.843a3.796 3.796 0 0 1-3.797-3.797m16.031 3.797a4.22 4.22 0 0 0 4.219-4.219v-8.437a4.218 4.218 0 1 0-8.438 0v8.437a4.22 4.22 0 0 0 4.219 4.219"/></svg>