<svg xmlns="http://www.w3.org/2000/svg" fill="none" viewBox="0 0 12 15"><path fill="#d5647c" d="M4.463 14.83c-.832-.495-1.33-1.364-1.364-2.387-.051-1.909 1.177-2.847 1.958-4.125 1.12-1.84.815-2.983.815-2.983s.934.529 1.477 2.489c.17.58.203 1.159.153 1.704-.085 1.381-.923 3.256-.923 3.256s1.279-.852 1.568-2.744c.475.494.916 1.21.967 1.96.085 1.295-.956 2.489-2.11 3 2.002-.46 3.706-2.165 4.198-3.41.628-1.567.656-2.88.554-4.09-.135-1.653.244-2.966.244-2.966s-1.103.324-1.918 1.67c-.374.614-.526 1.517-.526 1.517s.084-.8-.442-2.267c-.526-1.431-1.007-1.602-1.296-2.659C7.445 1.381 8.276 0 8.276 0S4.983.614 3.49 3.494c-1.324 2.557-.775 3.75-.775 3.75s-.56-.528-.848-1.261c-.289-.733-.221-1.398-.221-1.398S-.839 7.313.298 10.568c.764 2.284 2.383 3.648 4.165 4.261"/></svg>