<svg xmlns="http://www.w3.org/2000/svg" fill="none" viewBox="0 0 25 25"><path fill="#fff" d="m21.466 9.896-.583-1.042a1.99 1.99 0 0 0-1.74-1.042h-4.557a2.083 2.083 0 0 0-2.083-2.083H4.169a2.083 2.083 0 0 0-2.083 2.083v7.813a2.083 2.083 0 0 0 2.083 2.083h.052a2.604 2.604 0 0 0 5.105 0h6.354a2.604 2.604 0 0 0 5.104 0h.146a1.99 1.99 0 0 0 1.99-1.99v-2.697a1.94 1.94 0 0 0-.25-.964zm-.63 1.041.573 1.042.292.521h-3.47a.52.52 0 0 1-.52-.52v-.522a.52.52 0 0 1 .52-.52zM6.773 18.75a1.56 1.56 0 0 1-1.53-1.276 1.3 1.3 0 0 1-.032-.287 1.563 1.563 0 1 1 3.125 0q0 .146-.031.287a1.56 1.56 0 0 1-1.532 1.276m2.553-2.083v-.047a3 3 0 0 0-.125-.412l-.084-.166a2 2 0 0 0-.135-.25l-.125-.167a2 2 0 0 0-.167-.198 1.4 1.4 0 0 0-.15-.151l-.204-.172a2 2 0 0 0-.177-.12l-.24-.13-.182-.083a3 3 0 0 0-.297-.094l-.146-.042a2.4 2.4 0 0 0-.99 0l-.16.042q-.152.037-.298.094l-.182.083-.24.13a2 2 0 0 0-.213.12l-.198.167a1.4 1.4 0 0 0-.151.15q-.094.098-.172.204c-.042.057-.083.11-.125.172a2 2 0 0 0-.135.25c0 .057-.058.11-.084.166a3 3 0 0 0-.125.412v.047H4.17a1.04 1.04 0 0 1-1.041-1.042V7.812A1.04 1.04 0 0 1 4.17 6.771h8.334a1.04 1.04 0 0 1 1.041 1.041V12.5H5.732a.52.52 0 1 0 0 1.042h7.812v3.125zm8.906 2.083a1.56 1.56 0 0 1-1.531-1.276 1.3 1.3 0 0 1-.032-.287 1.563 1.563 0 1 1 3.125 0q0 .146-.031.287a1.56 1.56 0 0 1-1.531 1.276m3.646-3.031a.954.954 0 0 1-.948.948h-.146v-.047a3 3 0 0 0-.125-.412l-.083-.166a2 2 0 0 0-.136-.25c-.042-.063-.083-.115-.125-.172a2 2 0 0 0-.167-.198 1.4 1.4 0 0 0-.15-.151l-.204-.167a2 2 0 0 0-.177-.12l-.24-.13-.182-.083a3 3 0 0 0-.297-.094l-.145-.042a2.4 2.4 0 0 0-.99 0l-.161.042q-.152.037-.297.094l-.183.083-.24.13a2 2 0 0 0-.213.12l-.198.167a1.4 1.4 0 0 0-.15.15q-.093.098-.173.204l-.125.172q-.076.12-.135.25l-.083.166a3 3 0 0 0-.125.412v.047h-1.094V8.854h4.557a.95.95 0 0 1 .828.49l.308.552h-2.047a1.563 1.563 0 0 0-1.563 1.562v.521a1.563 1.563 0 0 0 1.563 1.563h3.646z"/></svg>