<svg xmlns="http://www.w3.org/2000/svg" fill="none" viewBox="0 0 69 13"><path fill="#d5647c" d="m2.108 12.238 1.498-4.452-3.612-2.422h4.424L6 .59l1.61 4.774h4.396L8.394 7.786l1.526 4.452L6 9.396zm14.006 0 1.498-4.452L14 5.364h4.424L20.006.59l1.61 4.774h4.396L22.4 7.786l1.526 4.452-3.92-2.842zm14.006 0 1.498-4.452-3.612-2.422h4.424L34.012.59l1.61 4.774h4.396l-3.612 2.422 1.526 4.452-3.92-2.842zm14.006 0 1.498-4.452-3.612-2.422h4.424L48.018.59l1.61 4.774h4.396l-3.612 2.422 1.526 4.452-3.92-2.842zm14.006 0 1.498-4.452-3.612-2.422h4.424L62.024.59l1.61 4.774h4.396l-3.612 2.422 1.526 4.452-3.92-2.842z"/></svg>